<svg xmlns:xlink="http://www.w3.org/1999/xlink" viewBox="0 0 32 32" xmlns="http://www.w3.org/2000/svg" aria-hidden="true" role="presentation" focusable="false" style="display: block; height: 24px; width: 24px; fill: currentcolor;" width="32"  height="32" ><path d="m21.5371936.79901371c7.1880175 1.92602347 11.494866 9.23747869 9.7426084 16.43001709l-.0788157.3081628-.2588191.9659258-12.3525005-3.310178-3.857 14.14h-2.073l3.997-14.658-12.11647204-3.2462092.25881905-.9659258c1.95353809-7.29070343 9.44747649-11.61733078 16.73817989-9.66379269zm-15.87052693 20.20098629c2.209139 0 4 1.790861 4 4s-1.790861 4-4 4-4-1.790861-4-4 1.790861-4 4-4zm0 2c-1.1045695 0-2 .8954305-2 2s.8954305 2 2 2 2-.8954305 2-2-.8954305-2-2-2zm19.65915683-18.08358565.0562051.17389745c.7414212 2.34256671.7721409 5.3779941-.0104397 8.5029521l-.083862.3235661-.2500602.9331114 4.4483333 1.1920586.0336854-.1902377c.6822646-4.2118807-1.0077857-8.36292241-4.1938619-10.93534795zm-3.4573144-1.74209583-2.7528424 10.08862288 3.99 1.069.2502086-.9327495c1.2342523-4.60629235.4411768-8.82534729-1.4873662-10.22487338zm-1.9509888-.45024981c-2.2768126.37924219-4.8951798 3.45150567-6.1362066 7.78144189l-.0846967.3054909-.2509503.9329399 3.738 1.002zm-3.6637953-.26273744-.2191322.03588101c-3.8698651.66371945-7.25443966 3.26546734-8.8113326 7.03021387l-.12548156.31640439-.06677864.18116946 4.4836667 1.2019414.2500987-.933578c.8918782-3.32853504 2.5446834-6.12802789 4.4889596-7.83203213z" fill="#222222"></path></svg>