<svg xmlns:xlink="http://www.w3.org/1999/xlink" viewBox="0 0 32 32" xmlns="http://www.w3.org/2000/svg" aria-hidden="true" role="presentation" focusable="false" style="display: block; height: 24px; width: 24px; fill: currentcolor;" width="32"  height="32" ><path d="M21 1a5 5 0 0 1 4.995 4.783L26 6v20a5 5 0 0 1-4.783 4.995L21 31H11a5 5 0 0 1-4.995-4.783L6 26V6a5 5 0 0 1 4.783-4.995L11 1zm0 2H11a3 3 0 0 0-2.995 2.824L8 6v20a3 3 0 0 0 2.824 2.995L11 29h10a3 3 0 0 0 2.995-2.824L24 26V6a3 3 0 0 0-2.824-2.995zM10 25a2 2 0 0 1 1.995 1.85L12 27h-2zm0-4a6 6 0 0 1 5.996 5.775L16 27h-2a4 4 0 0 0-3.8-3.995L10 23zm0-4c5.43 0 9.848 4.327 9.996 9.72L20 27h-2a8 8 0 0 0-7.75-7.996L10 19z" fill="#222222"></path></svg>