<svg xmlns:xlink="http://www.w3.org/1999/xlink" viewBox="0 0 32 32" xmlns="http://www.w3.org/2000/svg" aria-hidden="true" role="presentation" focusable="false" style="display: block; height: 24px; width: 24px; fill: currentcolor;" width="32"  height="32" ><path d="M30.966 2.26a74.688 74.688 0 0 1-2.726 8.658c-1.632 4.262-3.45 7.415-5.846 10.061l1.46 1.46a3.477 3.477 0 0 1 3.949.459l2.155 2.146a3.475 3.475 0 0 1-4.766 5.054l-2.148-2.14a3.476 3.476 0 0 1-.605-4.104l-1.446-1.446c-4.67 4.397-11.375 7.38-18.833 8.58a1 1 0 0 1-1.134-1.21l.411-1.729c1.928-7.781 4.298-12.97 8.155-17.043L8.147 9.562a3.477 3.477 0 0 1-3.949-.458L2.044 6.958a3.475 3.475 0 0 1 4.765-5.055l2.149 2.14a3.476 3.476 0 0 1 .604 4.103l1.462 1.463C15.54 5.549 22.178 2.586 29.8 1.02a1 1 0 0 1 1.167 1.239zm-6.508 22.198a1.475 1.475 0 0 0-.101 1.974l2.1 2.112a1.475 1.475 0 0 0 2.188-1.974l-2.101-2.112a1.475 1.475 0 0 0-2.086 0zM11.006 12.422c-3.46 3.675-5.662 8.4-7.476 15.506l-.204.819.179-.035c6.388-1.287 12.064-3.963 16.074-7.72l-1.58-1.578-1.291 1.294a3.829 3.829 0 0 1-5.257.15l-.157-.15a3.829 3.829 0 0 1-.15-5.257L12.584 14l-1.578-1.578zM14 15.414l-1.291 1.294a1.829 1.829 0 0 0-.113 2.463l.113.123a1.829 1.829 0 0 0 2.463.112L16.586 18l-2.587-2.586zM28.6 3.3C22.8 4.7 16.9 7 12.4 11l8.5 8.5c3.715-4.078 5.706-9.306 7.238-14.568l.462-1.632zm-6.7 6.8a3.829 3.829 0 0 1 .148 5.256L20.914 16.5 19.5 15.086l.986-.985a1.829 1.829 0 0 0 .112-2.463l-.112-.123a1.829 1.829 0 0 0-2.463-.112L16.914 12.5 15.5 11.086l.986-.985a3.828 3.828 0 0 1 5.414 0zM3.457 3.458a1.475 1.475 0 0 0-.101 1.974l2.1 2.112A1.475 1.475 0 0 0 7.646 5.57L5.544 3.458a1.475 1.475 0 0 0-2.086 0z" fill="#222222"></path></svg>