<svg xmlns:xlink="http://www.w3.org/1999/xlink" viewBox="0 0 32 32" xmlns="http://www.w3.org/2000/svg" aria-hidden="true" role="presentation" focusable="false" style="display: block; height: 24px; width: 24px; fill: currentcolor;" width="32"  height="32" ><path d="m2.61257411 1 13.33750219-.00003368c.2847338-.01695191.5783672.08460408.7943945.33085979l.0875795.11447369 12 18c.4219395.6329093.0099308 1.470436-.720208 1.5487653l-.1118423.0059349-11.0004259-.0008429v2l12.0004259.0008429v1c0 1.8361992-.6186221 3.5279115-1.6588196 4.8780903l.1333865.1044573c.3523009.2943011.8254174.4740644 1.3337381.5105448l.1921033.0069076-.0008164 2c-.9482488-.0003872-1.8714589-.2864959-2.6103966-.8284277l-.1968401-.1541199c-.3968061-.3314794-.9455981-.5174524-1.5258163-.5174524-.5154406 0-1.0063162.1469577-1.3877087.4124093l-.1377243.1050431c-.7681284.6416706-1.7727835.9821252-2.8080529.9825476-.9484793-.0003872-1.8714278-.2864378-2.6103841-.8284132l-.1968526-.1541344c-.3968061-.3314794-.9455981-.5174524-1.5258163-.5174524-.5155267 0-1.0065822.1469963-1.3879641.412564l-.1377108.1050904c-.7685435.6416063-1.7727926.9819233-2.8081945.9823456-.9480737-.0003872-1.87091787-.2864139-2.61045107-.8285629l-.1970272-.1541867c-.39622749-.3312082-.94522376-.5172504-1.52519127-.5172504-.51574949 0-1.00666844.1469417-1.38808383.4124039l-.13773242.1050485c-.70419357.5882614-1.60678491.9233016-2.54931261.9753817l-.25792411.0071659-.00081618-2c.51598595-.0002105 1.00702594-.1472267 1.38821173-.4124912l.27269837-.2103967c-.92743864-1.2047147-1.5207513-2.6829906-1.63911865-4.2982493l-.01718213-.3213485-.02121038-1.2575143 12.01658325-.0008429v-13.99999997l-12.38699999.00084287 1.33342589-4zm24.30242589 24h-21.832l.015308.0883608c.20795974 1.1361588.735701 2.1591458 1.48566237 2.9736682.24615671-.0417506.49692124-.062029.74949069-.062029 1.03468645 0 2.03961289.3405465 2.80740294.9823456.396893.3313398.945923.5174176 1.5252668.5176544.5805075-.0002368 1.129549-.1862944 1.5259826-.5172504.7682737-.6422031 1.7732002-.9827496 2.8078866-.9827496.9485841 0 1.8717088.286038 2.6110616.8283213l.1969664.1542263c.396445.3311778.945357.5172156 1.5250248.5174524.5157841-.0002105 1.0070654-.147297 1.3882325-.4125146l.1376088-.1049378c.7686408-.6420986 1.773149-.9825476 2.8076448-.9825476.1679252 0 .3350525.008964.5005037.0267268l.2465315.0324303.0726435-.0769285c.6506098-.7304632 1.1243488-1.6218219 1.3553746-2.6067272l.057363-.2731552zm-9.915-19.696v13.696h9.131zm-11.613-2.305.66709255 2.001-.66709255 1.999 9.6125741.00015713v-4z" fill="#222222"></path></svg>